<?xml version="1.0" encoding="UTF-8" standalone="no"?>
<!-- Created with Inkscape (http://www.inkscape.org/) -->

<svg
   xmlns:dc="http://purl.org/dc/elements/1.1/"
   xmlns:cc="http://creativecommons.org/ns#"
   xmlns:rdf="http://www.w3.org/1999/02/22-rdf-syntax-ns#"
   xmlns:svg="http://www.w3.org/2000/svg"
   xmlns="http://www.w3.org/2000/svg"
   xmlns:sodipodi="http://sodipodi.sourceforge.net/DTD/sodipodi-0.dtd"
   xmlns:inkscape="http://www.inkscape.org/namespaces/inkscape"
   id="svg3369"
   version="1.1"
   inkscape:version="0.48.4 r9939"
   width="291.96088"
   height="225.1481"
   xml:space="preserve"
   sodipodi:docname="kappa-hist-5.svg"><metadata
     id="metadata3375"><rdf:RDF><cc:Work
         rdf:about=""><dc:format>image/svg+xml</dc:format><dc:type
           rdf:resource="http://purl.org/dc/dcmitype/StillImage" /><dc:title /></cc:Work></rdf:RDF></metadata><defs
     id="defs3373"><clipPath
       clipPathUnits="userSpaceOnUse"
       id="clipPath3387"><path
         d="m 37.8,224.33592 201.6,0 0,151.86408 -201.6,0 0,-151.86408 z"
         id="path3389"
         inkscape:connector-curvature="0" /></clipPath><clipPath
       clipPathUnits="userSpaceOnUse"
       id="clipPath3397"><path
         d="m 37.8,224.33592 201.6,0 0,151.86408 -201.6,0 0,-151.86408 z"
         id="path3399"
         inkscape:connector-curvature="0" /></clipPath><clipPath
       clipPathUnits="userSpaceOnUse"
       id="clipPath3407"><path
         d="m 37.8,224.33592 201.6,0 0,151.86408 -201.6,0 0,-151.86408 z"
         id="path3409"
         inkscape:connector-curvature="0" /></clipPath><clipPath
       clipPathUnits="userSpaceOnUse"
       id="clipPath3513"><path
         d="m 37.8,63.36 201.6,0 0,151.86408 -201.6,0 0,-151.86408 z"
         id="path3515"
         inkscape:connector-curvature="0" /></clipPath><clipPath
       clipPathUnits="userSpaceOnUse"
       id="clipPath3523"><path
         d="m 37.8,63.36 201.6,0 0,151.86408 -201.6,0 0,-151.86408 z"
         id="path3525"
         inkscape:connector-curvature="0" /></clipPath><clipPath
       clipPathUnits="userSpaceOnUse"
       id="clipPath3533"><path
         d="m 37.8,63.36 201.6,0 0,151.86408 -201.6,0 0,-151.86408 z"
         id="path3535"
         inkscape:connector-curvature="0" /></clipPath><clipPath
       clipPathUnits="userSpaceOnUse"
       id="clipPath3591"><path
         d="m -35,-250 1083,0 0,1000 -1083,0 0,-1000 z"
         id="path3593"
         inkscape:connector-curvature="0" /></clipPath></defs><sodipodi:namedview
     pagecolor="#ffffff"
     bordercolor="#666666"
     borderopacity="1"
     objecttolerance="10"
     gridtolerance="10"
     guidetolerance="10"
     inkscape:pageopacity="0"
     inkscape:pageshadow="2"
     inkscape:window-width="1918"
     inkscape:window-height="1053"
     id="namedview3371"
     showgrid="false"
     fit-margin-top="0"
     fit-margin-left="0"
     fit-margin-right="0"
     fit-margin-bottom="0"
     inkscape:zoom="1.7191919"
     inkscape:cx="-65.675343"
     inkscape:cy="-2.1538906"
     inkscape:window-x="0"
     inkscape:window-y="25"
     inkscape:window-maximized="0"
     inkscape:current-layer="g3377" /><g
     id="g3377"
     inkscape:groupmode="layer"
     inkscape:label="kappa-hist"
     transform="matrix(1.25,0,0,-1.25,-17.264648,474.802)"
     style="display:inline"><path
       d="m 37.8,224.33592 201.6,0 0,151.86408 -201.6,0 0,-151.86408 z"
       style="fill:#ffffff;fill-opacity:1;fill-rule:nonzero;stroke:none"
       id="path3381"
       inkscape:connector-curvature="0" /><g
       id="g3383"><g
         id="g3385"
         clip-path="url(#clipPath3387)"><path
           d="m 38.843509,397 0.165376,-38.84112 0.805923,-31.00144 0.805923,-16.14368 0.805924,-10.36563 0.805923,-7.54072 0.805923,-5.44517 0.805924,-4.30504 1.611846,-6.73679 1.611847,-4.94847 1.611846,-3.39522 0.805923,-1.61736 1.611847,-2.6288 1.611846,-2.17009 0.805924,-1.06748 0.805923,-0.72843 2.41777,-2.67296 0.805923,-0.37087 0.805923,-0.74552 3.223693,-2.2926 0.805924,-0.42263 0.805923,-0.27826 0.805923,-0.66195 0.805923,-0.27209 0.805924,-0.53517 2.41777,-0.87278 0.805923,-0.58028 0.805923,-0.38415 0.805923,-0.21796 0.805924,-0.35994 0.805923,-0.18282 2.41777,-1.03946 0.805923,-0.0508 4.029616,-1.47396 0.805924,0.0508 2.417769,-0.72558 3.223693,-0.85141 1.611847,-0.004 0.805923,-0.33478 0.805923,-0.17902 1.611847,-0.10446 0.805923,-0.36849 0.805924,-0.23506 0.805923,-0.0104 0.805923,-0.30676 0.805923,-0.0128 0.805924,-0.20371 0.805923,-0.0465 1.611846,-0.40268 0.805924,0.007 1.611843,-0.16525 0.80593,-0.38606 0.80592,-0.005 0.80592,0.13201 0.80593,-0.35044 0.80592,-0.20086 1.61185,-0.16146 0.80592,-0.25167 0.80592,0.2455 0.80593,-0.19896 0.80592,0.0152 0.80592,-0.32385 1.61185,-0.0864 0.80592,0.0693 1.61185,-0.37657 2.41777,-0.0584 0.80592,-0.255 1.61185,-0.19849 1.61184,0.0375 1.61185,-0.32432 0.80592,-0.0119 0.80593,-0.20847 0.80592,0.22034 1.61185,-0.43165 0.80592,0.0755 0.80592,-0.0584 1.61185,-0.28397 0.80592,-0.0945 0.80593,0.0693 0.80592,-0.11682 2.41777,-0.0541 0.80592,-0.16383 1.61185,0.0299 1.61185,-0.18235 0.80592,-0.74125 1.61185,-1.01096 4.02961,-1.22798 0.80593,-0.51617 0.80592,0.15053 0.80592,-0.29536 1.61185,-0.33762 1.61185,-0.38654 0.80592,-0.0855 1.61185,-0.35852 0.80592,-0.0537 0.80592,-0.20323 1.61185,-0.25928 3.22369,-0.43591 0.80592,-0.24218 0.80593,-0.10589 0.80592,0.10257 0.80592,-0.19185 2.41777,-0.17094 0.80593,-0.26972 1.61184,-4.8e-4 0.80593,-0.16287 1.61184,-0.13201 1.61185,-0.27542 1.61185,-0.0769 10.477,-1.00906 2.41777,-0.005 0.80592,-0.20324 0.80593,0.0527 0.80592,-0.16145 2.41777,-0.0769 3.22369,-0.36612 1.61185,-0.0119 6.44738,-0.3965 1.61185,-0.0974 5.64146,-0.31151 7.25331,-0.27541 0.80593,-0.11682 0.80592,0.0546 1.61185,-0.18899 20.14808,-0.79491 0,0"
           style="fill:none;stroke:#000000;stroke-width:1;stroke-linecap:square;stroke-linejoin:round;stroke-miterlimit:10;stroke-opacity:1;stroke-dasharray:none"
           id="path3391"
           inkscape:connector-curvature="0" /></g></g><path
       d="m 37.8,224.33592 0,4"
       style="fill:#000000;fill-opacity:1;fill-rule:nonzero;stroke:#000000;stroke-width:0.5;stroke-linecap:butt;stroke-linejoin:round;stroke-miterlimit:10;stroke-opacity:1;stroke-dasharray:none"
       id="path3413"
       inkscape:connector-curvature="0" /><path
       d="m 37.8,376.2 0,-4"
       style="fill:#000000;fill-opacity:1;fill-rule:nonzero;stroke:#000000;stroke-width:0.5;stroke-linecap:butt;stroke-linejoin:round;stroke-miterlimit:10;stroke-opacity:1;stroke-dasharray:none"
       id="path3415"
       inkscape:connector-curvature="0" /><path
       d="m 88.2,224.33592 0,4"
       style="fill:#000000;fill-opacity:1;fill-rule:nonzero;stroke:#000000;stroke-width:0.5;stroke-linecap:butt;stroke-linejoin:round;stroke-miterlimit:10;stroke-opacity:1;stroke-dasharray:none"
       id="path3417"
       inkscape:connector-curvature="0" /><path
       d="m 88.2,376.2 0,-4"
       style="fill:#000000;fill-opacity:1;fill-rule:nonzero;stroke:#000000;stroke-width:0.5;stroke-linecap:butt;stroke-linejoin:round;stroke-miterlimit:10;stroke-opacity:1;stroke-dasharray:none"
       id="path3419"
       inkscape:connector-curvature="0" /><path
       d="m 138.6,224.33592 0,4"
       style="fill:#000000;fill-opacity:1;fill-rule:nonzero;stroke:#000000;stroke-width:0.5;stroke-linecap:butt;stroke-linejoin:round;stroke-miterlimit:10;stroke-opacity:1;stroke-dasharray:none"
       id="path3421"
       inkscape:connector-curvature="0" /><path
       d="m 138.6,376.2 0,-4"
       style="fill:#000000;fill-opacity:1;fill-rule:nonzero;stroke:#000000;stroke-width:0.5;stroke-linecap:butt;stroke-linejoin:round;stroke-miterlimit:10;stroke-opacity:1;stroke-dasharray:none"
       id="path3423"
       inkscape:connector-curvature="0" /><path
       d="m 189,224.33592 0,4"
       style="fill:#000000;fill-opacity:1;fill-rule:nonzero;stroke:#000000;stroke-width:0.5;stroke-linecap:butt;stroke-linejoin:round;stroke-miterlimit:10;stroke-opacity:1;stroke-dasharray:none"
       id="path3425"
       inkscape:connector-curvature="0" /><path
       d="m 189,376.2 0,-4"
       style="fill:#000000;fill-opacity:1;fill-rule:nonzero;stroke:#000000;stroke-width:0.5;stroke-linecap:butt;stroke-linejoin:round;stroke-miterlimit:10;stroke-opacity:1;stroke-dasharray:none"
       id="path3427"
       inkscape:connector-curvature="0" /><path
       d="m 239.4,224.33592 0,4"
       style="fill:#000000;fill-opacity:1;fill-rule:nonzero;stroke:#000000;stroke-width:0.5;stroke-linecap:butt;stroke-linejoin:round;stroke-miterlimit:10;stroke-opacity:1;stroke-dasharray:none"
       id="path3429"
       inkscape:connector-curvature="0" /><path
       d="m 239.4,376.2 0,-4"
       style="fill:#000000;fill-opacity:1;fill-rule:nonzero;stroke:#000000;stroke-width:0.5;stroke-linecap:butt;stroke-linejoin:round;stroke-miterlimit:10;stroke-opacity:1;stroke-dasharray:none"
       id="path3431"
       inkscape:connector-curvature="0" /><path
       d="m 37.8,224.33592 4,0"
       style="fill:#000000;fill-opacity:1;fill-rule:nonzero;stroke:#000000;stroke-width:0.5;stroke-linecap:butt;stroke-linejoin:round;stroke-miterlimit:10;stroke-opacity:1;stroke-dasharray:none"
       id="path3433"
       inkscape:connector-curvature="0" /><path
       d="m 239.4,224.33592 -4,0"
       style="fill:#000000;fill-opacity:1;fill-rule:nonzero;stroke:#000000;stroke-width:0.5;stroke-linecap:butt;stroke-linejoin:round;stroke-miterlimit:10;stroke-opacity:1;stroke-dasharray:none"
       id="path3435"
       inkscape:connector-curvature="0" /><text
       transform="matrix(1,0,0,-1,28.753125,220.6953)"
       id="text3437"><tspan
         style="font-size:10px;font-variant:normal;font-weight:normal;writing-mode:lr-tb;fill:#000000;fill-opacity:1;fill-rule:nonzero;stroke:none;font-family:Bitstream Vera Sans;-inkscape-font-specification:BitstreamVeraSans-Roman"
         x="0"
         y="0"
         id="tspan3439">0</tspan></text>
<path
       d="m 37.8,262.30194 4,0"
       style="fill:#000000;fill-opacity:1;fill-rule:nonzero;stroke:#000000;stroke-width:0.5;stroke-linecap:butt;stroke-linejoin:round;stroke-miterlimit:10;stroke-opacity:1;stroke-dasharray:none"
       id="path3441"
       inkscape:connector-curvature="0" /><path
       d="m 239.4,262.30194 -4,0"
       style="fill:#000000;fill-opacity:1;fill-rule:nonzero;stroke:#000000;stroke-width:0.5;stroke-linecap:butt;stroke-linejoin:round;stroke-miterlimit:10;stroke-opacity:1;stroke-dasharray:none"
       id="path3443"
       inkscape:connector-curvature="0" /><text
       transform="matrix(1,0,0,-1,29.45625,258.6535)"
       id="text3445"><tspan
         style="font-size:10px;font-variant:normal;font-weight:normal;writing-mode:lr-tb;fill:#000000;fill-opacity:1;fill-rule:nonzero;stroke:none;font-family:Bitstream Vera Sans;-inkscape-font-specification:BitstreamVeraSans-Roman"
         x="0"
         y="0"
         id="tspan3447">1</tspan></text>
<path
       d="m 37.8,300.26796 4,0"
       style="fill:#000000;fill-opacity:1;fill-rule:nonzero;stroke:#000000;stroke-width:0.5;stroke-linecap:butt;stroke-linejoin:round;stroke-miterlimit:10;stroke-opacity:1;stroke-dasharray:none"
       id="path3449"
       inkscape:connector-curvature="0" /><path
       d="m 239.4,300.26796 -4,0"
       style="fill:#000000;fill-opacity:1;fill-rule:nonzero;stroke:#000000;stroke-width:0.5;stroke-linecap:butt;stroke-linejoin:round;stroke-miterlimit:10;stroke-opacity:1;stroke-dasharray:none"
       id="path3451"
       inkscape:connector-curvature="0" /><text
       transform="matrix(1,0,0,-1,29.175,296.55702)"
       id="text3453"><tspan
         style="font-size:10px;font-variant:normal;font-weight:normal;writing-mode:lr-tb;fill:#000000;fill-opacity:1;fill-rule:nonzero;stroke:none;font-family:Bitstream Vera Sans;-inkscape-font-specification:BitstreamVeraSans-Roman"
         x="0"
         y="0"
         id="tspan3455">2</tspan></text>
<path
       d="m 37.8,338.23398 4,0"
       style="fill:#000000;fill-opacity:1;fill-rule:nonzero;stroke:#000000;stroke-width:0.5;stroke-linecap:butt;stroke-linejoin:round;stroke-miterlimit:10;stroke-opacity:1;stroke-dasharray:none"
       id="path3457"
       inkscape:connector-curvature="0" /><path
       d="m 239.4,338.23398 -4,0"
       style="fill:#000000;fill-opacity:1;fill-rule:nonzero;stroke:#000000;stroke-width:0.5;stroke-linecap:butt;stroke-linejoin:round;stroke-miterlimit:10;stroke-opacity:1;stroke-dasharray:none"
       id="path3459"
       inkscape:connector-curvature="0" /><text
       transform="matrix(1,0,0,-1,29.003125,334.59336)"
       id="text3461"><tspan
         style="font-size:10px;font-variant:normal;font-weight:normal;writing-mode:lr-tb;fill:#000000;fill-opacity:1;fill-rule:nonzero;stroke:none;font-family:Bitstream Vera Sans;-inkscape-font-specification:BitstreamVeraSans-Roman"
         x="0"
         y="0"
         id="tspan3463">3</tspan></text>
<path
       d="m 37.8,376.2 4,0"
       style="fill:#000000;fill-opacity:1;fill-rule:nonzero;stroke:#000000;stroke-width:0.5;stroke-linecap:butt;stroke-linejoin:round;stroke-miterlimit:10;stroke-opacity:1;stroke-dasharray:none"
       id="path3465"
       inkscape:connector-curvature="0" /><path
       d="m 239.4,376.2 -4,0"
       style="fill:#000000;fill-opacity:1;fill-rule:nonzero;stroke:#000000;stroke-width:0.5;stroke-linecap:butt;stroke-linejoin:round;stroke-miterlimit:10;stroke-opacity:1;stroke-dasharray:none"
       id="path3467"
       inkscape:connector-curvature="0" /><text
       transform="matrix(1,0,0,-1,28.4875,372.55156)"
       id="text3469"><tspan
         style="font-size:10px;font-variant:normal;font-weight:normal;writing-mode:lr-tb;fill:#000000;fill-opacity:1;fill-rule:nonzero;stroke:none;font-family:Bitstream Vera Sans;-inkscape-font-specification:BitstreamVeraSans-Roman"
         x="0"
         y="0"
         id="tspan3471">4</tspan></text>
<text
       transform="matrix(0,1,1,0,21.409375,253.81484)"
       id="text3473"><tspan
         style="font-size:10px;font-variant:normal;font-weight:normal;writing-mode:lr-tb;fill:#000000;fill-opacity:1;fill-rule:nonzero;stroke:none;font-family:Bitstream Vera Sans;-inkscape-font-specification:BitstreamVeraSans-Roman"
         x="0 6.3499999 10.46 16.58 22.93 29.059999 35.41 38.189999 40.970001 43.75 47.669998 53.59 56.77 63.119999 69.269997 75.610001 80.82 83.599998 87.519997"
         y="0"
         sodipodi:role="line"
         id="tspan3475">probability density</tspan></text>
<path
       d="m 37.8,376.2 201.6,0"
       style="fill:none;stroke:#000000;stroke-width:1;stroke-linecap:square;stroke-linejoin:round;stroke-miterlimit:10;stroke-opacity:1;stroke-dasharray:none"
       id="path3477"
       inkscape:connector-curvature="0" /><path
       d="M 239.4,224.33592 239.4,376.2"
       style="fill:none;stroke:#000000;stroke-width:1;stroke-linecap:square;stroke-linejoin:round;stroke-miterlimit:10;stroke-opacity:1;stroke-dasharray:none"
       id="path3479"
       inkscape:connector-curvature="0" /><path
       d="m 37.8,224.33592 201.6,0"
       style="fill:none;stroke:#000000;stroke-width:1;stroke-linecap:square;stroke-linejoin:round;stroke-miterlimit:10;stroke-opacity:1;stroke-dasharray:none"
       id="path3481"
       inkscape:connector-curvature="0" /><path
       d="M 37.8,224.33592 37.8,376.2"
       style="fill:none;stroke:#000000;stroke-width:1;stroke-linecap:square;stroke-linejoin:round;stroke-miterlimit:10;stroke-opacity:1;stroke-dasharray:none"
       id="path3483"
       inkscape:connector-curvature="0" /><text
       id="text3543"
       transform="scale(1,-1)"
       x="30.503124"
       y="-213.87466"><tspan
         style="font-size:10px;font-variant:normal;font-weight:normal;writing-mode:lr-tb;fill:#000000;fill-opacity:1;fill-rule:nonzero;stroke:none;font-family:Bitstream Vera Sans;-inkscape-font-specification:BitstreamVeraSans-Roman"
         x="30.503124 36.863125 40.043125"
         y="-213.87466"
         sodipodi:role="line"
         id="tspan3545">0.0</tspan></text>
<text
       id="text3551"
       transform="scale(1,-1)"
       x="81.012497"
       y="-213.87466"><tspan
         style="font-size:10px;font-variant:normal;font-weight:normal;writing-mode:lr-tb;fill:#000000;fill-opacity:1;fill-rule:nonzero;stroke:none;font-family:Bitstream Vera Sans;-inkscape-font-specification:BitstreamVeraSans-Roman"
         x="81.012497 87.372498 90.552498"
         y="-213.87466"
         sodipodi:role="line"
         id="tspan3553">0.5</tspan></text>
<text
       id="text3559"
       transform="scale(1,-1)"
       x="131.52187"
       y="-213.87466"><tspan
         style="font-size:10px;font-variant:normal;font-weight:normal;writing-mode:lr-tb;fill:#000000;fill-opacity:1;fill-rule:nonzero;stroke:none;font-family:Bitstream Vera Sans;-inkscape-font-specification:BitstreamVeraSans-Roman"
         x="131.52187 137.88187 141.06187"
         y="-213.87466"
         sodipodi:role="line"
         id="tspan3561">1.0</tspan></text>
<text
       id="text3567"
       transform="scale(1,-1)"
       x="182.03125"
       y="-213.99966"><tspan
         style="font-size:10px;font-variant:normal;font-weight:normal;writing-mode:lr-tb;fill:#000000;fill-opacity:1;fill-rule:nonzero;stroke:none;font-family:Bitstream Vera Sans;-inkscape-font-specification:BitstreamVeraSans-Roman"
         x="182.03125 188.39125 191.57124"
         y="-213.99966"
         sodipodi:role="line"
         id="tspan3569">1.5</tspan></text>
<text
       id="text3575"
       transform="scale(1,-1)"
       x="232.1422"
       y="-213.87466"><tspan
         style="font-size:10px;font-variant:normal;font-weight:normal;writing-mode:lr-tb;fill:#000000;fill-opacity:1;fill-rule:nonzero;stroke:none;font-family:Bitstream Vera Sans;-inkscape-font-specification:BitstreamVeraSans-Roman"
         x="232.1422 238.5022 241.68219"
         y="-213.87466"
         sodipodi:role="line"
         id="tspan3577">2.0</tspan></text>
<g
       id="g3579"
       transform="translate(132.1,198.73405)"><text
         transform="matrix(1,0,0,-1,5.7617187,5.340625)"
         id="text3581"><tspan
           style="font-size:7px;font-variant:normal;font-weight:normal;writing-mode:lr-tb;fill:#000000;fill-opacity:1;fill-rule:nonzero;stroke:none;font-family:Cmr10;-inkscape-font-specification:Cmr10"
           x="0"
           y="0"
           id="tspan3583">2</tspan></text>
<g
         id="g3585"
         transform="matrix(0.01,0,0,0.01,0,1.0890625)"><g
           id="g3587"><g
             id="g3589"
             clip-path="url(#clipPath3591)"><path
               d="m 53,17 c 0,4 0,7 1,9 l 96,384 c 2,9 7,17 15,23 8,6 17,9 27,9 8,0 15,-3 21,-8 6,-5 9,-12 9,-20 0,-2 0,-4 0,-5 0,-1 -1,-2 -1,-3 L 185,261 c 26,8 62,31 106,68 44,37 78,63 101,79 22,15 50,23 83,23 10,0 19,-4 27,-10 7,-7 11,-16 11,-27 0,-16 -6,-29 -17,-40 -12,-11 -25,-16 -40,-16 -11,0 -20,3 -27,10 -8,7 -11,16 -11,27 0,7 1,13 4,19 -16,-7 -33,-16 -49,-28 -17,-12 -32,-23 -46,-35 -14,-12 -30,-26 -49,-42 -20,-16 -37,-28 -52,-36 27,0 55,-3 84,-9 28,-6 53,-17 74,-33 21,-16 32,-37 32,-63 0,-11 -2,-20 -4,-28 -6,-27 -9,-47 -9,-60 0,-30 10,-45 31,-45 24,0 42,13 55,39 12,26 23,57 31,93 1,4 4,6 8,6 l 12,0 c 2,0 4,-1 6,-3 2,-2 3,-4 3,-6 0,-1 -1,-2 -1,-3 C 523,40 484,-10 432,-10 c -19,0 -36,4 -50,12 -15,8 -26,20 -34,36 -8,15 -11,32 -11,51 0,12 1,23 4,33 2,9 3,17 3,23 0,21 -10,38 -29,50 -19,12 -41,21 -67,26 -26,4 -50,7 -72,7 L 125,22 c -2,-10 -7,-17 -15,-23 -8,-6 -17,-9 -27,-9 -8,0 -15,3 -21,7 -6,4 -9,11 -9,20"
               style="fill:#000000;fill-opacity:1;fill-rule:nonzero;stroke:none"
               id="path3595"
               inkscape:connector-curvature="0" /></g></g></g></g></g><g
     inkscape:groupmode="layer"
     id="layer3"
     inkscape:label="5R"
     style="display:none"><g
       transform="matrix(1.25,0,0,-1.25,-17.264648,474.802)"
       id="g3403"><g
         id="g3405"
         clip-path="url(#clipPath3407)"><path
           d="m 38.54936,397 0.149102,-16.80294 0.359385,-26.47971 1.078155,-33.57883 0.71877,-11.71354 0.359385,1.34883 0.359385,-4.36596 0.359385,-2.05874 0.359385,-5.39533 0.359385,-0.92289 0.359385,-1.34883 0.359385,-1.88126 0.359385,-4.11749 0.359385,1.52631 0.359385,-5.14686 0.359385,-2.30722 0.359385,1.88127 0.359385,0.8164 0.359385,0.39045 0.359385,-4.96938 0.359385,0.99387 0.359385,-4.25947 0.359385,0.46144 0.359385,-1.63279 0.359385,2.48469 0.359385,-1.66829 0.71877,0.24847 0.359385,-2.62668 0.359385,2.80415 0.359385,-1.84577 0.359385,-0.99387 0.359385,-3.44308 0.359385,2.16523 0.359385,-0.17747 0.359385,-2.30722 0.71877,2.34271 0.359385,-2.02325 0.71877,1.73929 0.359385,-2.12974 0.359385,-1.17135 0.359385,1.77478 0.359385,-4.40146 0.359385,2.02325 0.359385,0 0.359385,-0.85189 0.359385,1.41982 0.359385,-3.1946 0.359385,6.85065 0.359384,-5.21785 0.359385,-0.56793 0.359385,1.77478 0.359385,-1.59731 0.359385,-0.53243 0.359385,0.35496 0.359385,-1.56181 0.359385,-0.31946 0.359385,0.31946 0.71877,-0.46144 0.71877,0.56793 0.359385,-0.63892 0.359385,1.17135 0.359385,-2.87514 0.359385,2.27172 0.359385,-1.24235 0.359385,1.77478 0.359385,-0.95838 0.359385,-2.09424 0.71877,2.66217 0.71877,-2.66217 0.359385,2.20073 0.359385,-2.4137 0.359385,0.0355 0.359385,1.20685 0.359385,-1.24234 0.359385,-0.46145 0.71877,0.92289 0.359385,-1.66829 0.359385,-0.14199 0.359385,1.88127 0.359385,-2.09424 0.359385,0.74541 0.359385,-1.17136 0.359385,-0.53243 0.359385,1.84577 0.359385,-1.49082 0.359385,2.27172 0.359385,-2.20072 0.359385,-1.24235 0.359385,1.56181 0.359385,-0.8519 0.359385,1.02937 0.359385,-1.02937 0.359385,0.67442 0.359385,-0.8164 0.359385,-2.02325 0.359385,4.0465 0.359385,-2.98163 0.359385,0.0355 0.359384,-0.92288 0.359385,2.23622 0.359385,0.24847 0.359385,-2.16523 0.359385,-0.8519 0.359385,0.8164 0.359385,-2.20072 0.359385,0.92288 0.359385,2.09424 0.359385,-1.5618 0.359385,0.10648 0.359385,-0.17748 0.359385,1.02938 0.359385,-1.41983 0.359385,-2.69766 0.359385,3.54956 0.359385,-2.34271 0.359385,0.49694 0.359385,1.84577 0.359385,-0.46145 0.359385,-0.70991 0.359385,0.53244 0.359385,-4.64993 0.359385,3.65605 0.359385,1.24235 0.359385,-2.20073 0.359385,-0.74541 0.359385,0.56793 0.359385,0.31946 0.359385,-0.67441 0.359385,3.05262 0.71877,-4.22398 0.359385,-0.53243 0.359385,2.16523 0.359385,-1.20685 0.359385,0.39045 0.359385,-1.10036 0.359385,2.48469 0.359385,0.46144 0.359385,-1.10036 0.359385,-2.62668 0.359385,-0.53243 0.359385,1.41982 0.359385,-1.41982 0.359385,1.24234 0.359385,-0.81639 0.71877,1.13585 0.359385,-1.77477 0.359385,1.91676 0.359385,-1.49082 0.359385,-0.8164 0.359385,1.59731 0.359384,-0.42595 0.359385,-1.70379 0.359385,0.88739 0.359385,1.24235 0.359385,-2.4847 0.359385,0.88739 0.359385,-1.49081 0.359385,2.02325 0.359385,-3.08812 0.359381,2.48469 0.35939,0.071 0.35938,0.53244 0.35939,-3.83353 0.35938,3.08812 0.35939,-1.27784 0.35938,-1.70379 0.35939,2.12974 0.35938,-1.20685 0.35939,0.92288 0.35938,-0.28396 0.35939,-2.27172 0.35938,3.30109 0.35939,-2.27172 0.35938,-0.17748 0.35939,0.21298 0.35938,-1.95226 0.35939,1.6328 0.35938,0.49693 0.35939,1.77478 0.35938,-4.08199 0.35939,0.74541 0.35938,1.95226 0.35939,-3.83353 0.35938,3.40758 0.35939,-3.2656 0.35938,0.8164 0.35939,1.38433 0.71877,-0.49694 0.35938,-1.10036 0.35939,0.071 0.35938,-0.99388 0.35939,-0.14198 0.35938,0.7809 0.35939,-0.14198 0.35938,-0.31946 0.35939,-0.70991 0.35938,-0.0355 0.71877,-0.70991 0.35939,3.01713 0.35938,-1.81028 0.35939,-1.02937 0.35938,0.70991 0.35939,-0.31946 0.35938,-1.06487 0.35939,1.34884 0.35938,-1.5973 0.35939,-0.0355 0.35938,0.88739 0.71877,-2.02325 0.35939,1.27784 0.35938,-0.14198 0.35939,1.88127 0.35938,-3.2301 0.35939,0.7809 0.35938,-1.24235 0.35939,0.95839 0.35938,-0.21298 0.35939,0 0.35938,-1.49081 0.35939,0.95838 0.35938,0 0.35939,0.92288 0.71877,-2.27171 0.35938,0.46144 0.35939,-1.31334 0.35938,0.071 0.35939,-0.67441 0.35938,1.24234 0.35939,-0.071 0.35938,-1.20685 0.35939,0.99388 0.35938,-1.41983 0.35939,-0.21297 0.35938,0.35496 0.35939,0.81639 0.35938,-0.42594 0.35939,-1.17136 0.35938,2.16523 0.35939,-1.81027 0.35938,0.071 0.35939,-1.98775 0.35938,0.70991 0.35939,-1.02937 0.35938,-0.35496 0.71877,1.70379 0.35939,-1.24235 0.35938,-0.67441 0.35939,0.21297 0.35938,-0.21297 0.35939,-0.60343 0.35938,-1.10036 0.35939,0.70991 0.35938,-1.17135 0.71877,1.38432 0.35939,-1.27784 0.35938,0.17748 0.35939,0.53243 0.35938,-1.70378 0.35939,1.27784 0.35938,-1.45532 0.35939,-0.70991 0.35938,0.49693 0.71877,-1.5618 0.35939,-0.28397 0.71877,-1.45532 0.35938,-0.071 0.35939,0.49694 0.35938,-0.95838 0.71877,-0.17748 0.35939,-0.63892 0.35938,-0.17748 0.35939,0.78091 0.35938,-0.42595 0.35939,0.071 0.35938,-0.88739 0.35939,-0.21297 0.35938,0.071 0.35939,-0.56793 0.35938,0.35496 0.35939,-0.78091 0.35938,0.53244 0.35939,-0.28397 0.35938,0.46144 0.35939,-0.70991 1.07815,0.31946 0.35939,-0.67441 0.35938,-0.17748 0.35939,-0.35496 0.35938,0.46145 0.35939,-0.071 0.71877,-0.42594 0.71877,0.46144 0.71877,-0.60342 0.35938,0.39045 0.35939,-0.49694 0.35938,0.071 0.71877,-0.28397 2.15631,0.21298 0.35939,-0.60343 0.35938,-0.24847 0.35939,0.63892 0.35938,-0.28396 0.35939,0.31946 0.35938,-0.53243 0.35939,0.14198 0.35938,0 0.35939,-0.28397 0.71877,-0.071 0.35938,0.17748 0.35939,0.39045 0.35938,-0.39045 0.35939,0.24847 0.35938,-0.24847 0.71877,-0.10649 0.35939,0.21298 0.71877,-0.21298 1.07815,-0.21297 0.35939,0.28397 0.35938,-0.24847 0.71877,0.17747 1.07816,-0.21297 1.43754,-0.071 0.35938,0.14198 0.71877,-0.24847 0.71877,0.10649 0.35939,-0.10649 0.35938,0.24847 0.71877,-0.28396 0.71877,0.0355 0.35939,0 0.35938,-0.21297 0.35939,0.39045 0.35938,-0.17748 0.35939,0 0.35938,-0.17748 0.35939,0.10649 0.35938,-0.0355 0.35939,0.21297 0.35938,-0.31946 0.71877,0.071 0.35939,-0.17748 0.71877,0.10649 0.71877,0.0355 5.39077,-0.071 0.71877,-0.0355 1.07815,0.0355 0.35939,0.14199 0.35938,-0.17748 1.07816,0 0.71877,0.0355 28.03203,-0.0355 0,0"
           style="fill:none;stroke:#000000;stroke-width:1;stroke-linecap:butt;stroke-linejoin:round;stroke-miterlimit:10;stroke-opacity:1;stroke-dasharray:1, 3;stroke-dashoffset:0"
           id="path3411"
           inkscape:connector-curvature="0" /></g></g></g><g
     inkscape:groupmode="layer"
     id="layer4"
     inkscape:label="legend"
     style="display:none"><path
       transform="matrix(1.25,0,0,-1.25,-17.264648,474.802)"
       d="m 175.83437,360.475 16.8,0"
       style="fill:none;stroke:#000000;stroke-width:1;stroke-linecap:square;stroke-linejoin:round;stroke-miterlimit:10;stroke-opacity:1;stroke-dasharray:none;display:inline"
       id="path3489"
       inkscape:connector-curvature="0" /><text
       style="display:inline"
       transform="matrix(1.25,0,0,1.25,240.02831,29.45825)"
       id="text3491"><tspan
         style="font-size:12px;font-variant:normal;font-weight:normal;writing-mode:lr-tb;fill:#000000;fill-opacity:1;fill-rule:nonzero;stroke:none;font-family:Bitstream Vera Sans;-inkscape-font-specification:BitstreamVeraSans-Roman"
         x="0 4.224 9.1560001 16.535999"
         y="0"
         sodipodi:role="line"
         id="tspan3493">free</tspan></text>
<path
       transform="matrix(1.25,0,0,-1.25,-17.264648,474.802)"
       d="m 175.83437,342.85 16.8,0"
       style="fill:none;stroke:#000000;stroke-width:1;stroke-linecap:butt;stroke-linejoin:round;stroke-miterlimit:10;stroke-opacity:1;stroke-dasharray:6, 6;stroke-dashoffset:0;display:inline"
       id="path3495"
       inkscape:connector-curvature="0" /><text
       style="display:inline"
       transform="matrix(1.25,0,0,1.25,240.02831,51.4895)"
       id="text3497"><tspan
         style="font-size:12px;font-variant:normal;font-weight:normal;writing-mode:lr-tb;fill:#000000;fill-opacity:1;fill-rule:nonzero;stroke:none;font-family:Bitstream Vera Sans;-inkscape-font-specification:BitstreamVeraSans-Roman"
         x="0 7.632 10.932"
         y="0"
         sodipodi:role="line"
         id="tspan3499">5'F</tspan></text>
<path
       transform="matrix(1.25,0,0,-1.25,-17.264648,474.802)"
       d="m 175.83437,325.225 16.8,0"
       style="fill:none;stroke:#000000;stroke-width:1;stroke-linecap:butt;stroke-linejoin:round;stroke-miterlimit:10;stroke-opacity:1;stroke-dasharray:1, 3;stroke-dashoffset:0;display:inline"
       id="path3501"
       inkscape:connector-curvature="0" /><text
       style="display:inline"
       transform="matrix(1.25,0,0,1.25,240.02831,73.52075)"
       id="text3503"><tspan
         style="font-size:12px;font-variant:normal;font-weight:normal;writing-mode:lr-tb;fill:#000000;fill-opacity:1;fill-rule:nonzero;stroke:none;font-family:Bitstream Vera Sans;-inkscape-font-specification:BitstreamVeraSans-Roman"
         x="0 7.632 10.932"
         y="0"
         sodipodi:role="line"
         id="tspan3505">5'R</tspan></text>
</g><g
     inkscape:groupmode="layer"
     id="layer1"
     inkscape:label="5F"
     style="display:inline"><g
       transform="matrix(1.25,0,0,-1.25,-17.264648,474.802)"
       id="g3393"><g
         id="g3395"
         clip-path="url(#clipPath3397)"><path
           d="m 38.207389,397 0.381483,-83.64454 0.525914,-19.25927 0.525914,-12.27354 0.525915,-4.19629 0.525914,-5.14227 1.051829,-5.11802 1.051829,-4.53587 0.525914,-0.0242 1.051829,-2.08602 0.525915,-0.24256 0.525914,-1.89197 0.525915,2.2073 0.525914,-2.61965 0.525914,-1.01875 0.525915,1.14003 0.525914,0.24256 0.525915,-2.83795 0.525914,1.11577 0.525915,-0.84896 0.525914,1.43111 0.525914,-0.97024 0.525915,-0.53364 0.525914,1.01876 0.525915,-1.3826 0.525914,-0.4366 1.051829,0.31532 1.051829,-1.2128 0.525914,0.50938 1.051829,-0.41235 0.525914,-0.9945 1.051829,1.69792 0.525915,-1.45536 0.525914,2.08602 0.525915,-2.01325 0.525914,-0.3881 0.525914,-0.0728 0.525915,1.72217 0.525914,-1.67366 0.525915,1.55238 0.525914,-1.89197 0.525915,0.24256 0.525914,0.50938 0.525914,-0.3881 0.525915,-0.87321 0.525914,-0.65491 1.051829,2.61964 0.525915,-1.16428 0.525914,0.097 0.525914,-0.89747 1.051829,1.35833 0.525915,-0.99449 1.051828,-0.63066 0.525915,0.12128 0.525914,-0.87321 0.525915,1.11577 0.525914,0.55789 0.525915,-0.36384 0.525914,-0.19405 0.525914,1.26131 0.525915,-0.46086 0.525914,-1.94048 0.525915,0.2183 0.525914,1.77069 0.525915,-0.16979 0.525914,-0.65491 0.525914,0.63065 0.525915,-1.69792 0.525914,1.72218 0.525915,-0.24256 0.525914,-0.67917 0.525915,0.82471 0.525914,-1.89197 0.525914,1.60089 0.525915,0.82471 0.525914,1.40685 0.525915,-3.58989 0.525914,1.4311 0.525915,-0.48512 0.525914,-0.70342 1.051829,-0.0485 0.525914,0.24256 0.525915,0.48512 0.525914,-0.31533 0.525914,0.55789 0.525915,-0.36384 0.525914,0.4366 0.525915,0.80045 0.525914,-1.18854 0.525915,-0.12128 0.525914,0.2183 1.051829,1.62515 0.525914,-2.49836 0.525915,2.8622 0.525914,-0.55788 0.525915,-0.80045 1.051828,0.75193 0.525915,-0.63065 0.525914,3.2503 0.525915,-2.83795 0.525914,-0.0485 0.525915,1.72217 0.525914,-2.06176 0.525914,1.14004 0.525915,0.29107 0.525915,0.14553 0.52591,-1.79494 1.05183,1.57664 0.52592,0.43661 0.52591,-0.31533 0.52592,1.09152 0.52591,-1.52813 0.52591,1.2128 0.52592,-0.0485 0.52591,1.14003 0.52592,-0.6064 0.52591,-0.97024 0.52592,1.11578 0.52591,0.33958 0.52592,-2.08601 0.52591,2.54688 0.52591,-3.92948 0.52592,3.10477 0.52591,-1.38259 0.52592,0.29107 0.52591,1.38259 0.52592,-0.24256 0.52591,-0.48512 0.52592,-0.16979 0.52591,-0.33958 0.52591,1.40685 0.52592,-1.26132 0.52591,0.0243 0.52592,2.76518 1.05183,-2.13452 0.52591,0.2183 0.52592,1.40685 0.52591,-0.6064 0.52591,0.33958 0.52592,-1.11577 0.52591,0.70342 0.52592,0.89747 0.52591,-1.62515 0.52592,0.12128 0.52591,1.26131 0.52592,-0.16979 0.52591,-0.36384 0.52591,0.41235 0.52592,1.09152 0.52591,-0.24256 0.52592,-1.11577 0.52591,0.14553 0.52592,-0.41235 0.52591,-0.26682 0.52591,0.63066 0.52592,-0.70342 0.52591,0.4366 0.52592,0.0485 0.52591,-0.12128 0.52592,0.097 0.52591,-0.65491 0.52592,-1.35834 0.52591,1.33408 0.52591,-0.75193 0.52592,2.37708 0.52591,-1.55238 1.05183,1.14003 0.52592,-0.0728 0.52591,-1.69792 0.52592,0.87322 0.52591,-0.97024 0.52591,0.84896 0.52592,0.2183 0.52591,1.04301 0.52592,-0.94598 0.52591,0.16979 0.52592,-2.88646 0.52591,0.31532 0.52592,-2.18304 0.52591,0 0.52591,-0.70342 0.52592,-2.15879 0.52591,1.16429 0.52592,-0.65491 0.52591,-2.44986 1.05183,-0.41235 0.52592,-0.8247 0.52591,-0.16979 0.52591,-1.84346 0.52592,-0.63066 0.52591,1.64941 0.52592,-1.84345 0.52591,-0.58215 0.52592,-0.97024 0.52591,1.11578 0.52592,-2.47411 0.52591,0.92172 0.52591,0.0485 0.52592,-1.28557 0.52591,-0.31533 0.52592,-0.77619 0.52591,0.46086 0.52592,-1.11578 0.52591,-0.19404 0.52591,-0.80045 1.05183,-0.41235 0.52592,-0.097 1.05183,-1.55238 0.52591,-0.36384 0.52592,-0.55789 0.52591,0.46086 0.52591,-0.26681 0.52592,-0.77619 0.52591,-0.3881 0.52592,-0.0485 0.52591,-0.21831 0.52592,-0.0728 0.52591,-0.75194 0.52592,0.6064 0.52591,-0.31533 0.52591,-1.18854 0.52592,0.19405 2.10366,-1.23706 0.52591,-0.50938 0.52592,0.48512 0.52591,-1.18854 0.52591,0.87322 0.52592,-0.29108 0.52591,0.0485 0.52592,-0.58215 0.52591,0.80045 0.52592,-0.77619 0.52591,-0.31533 0.52592,0.14554 0.52591,-0.31533 0.52591,-0.16979 0.52592,0.0728 1.57774,-0.77619 0.52592,0.33959 0.52591,-0.82471 0.52592,0.19405 0.52591,-0.31533 0.52591,0.41235 0.52592,-0.67917 0.52591,0 0.52592,0.65492 1.57774,-0.84896 0.52591,-0.12128 0.52592,0.2183 0.52591,0.0243 0.52592,-0.14554 0.52591,-0.31533 0.52592,0.26682 0.52591,-0.63066 0.52592,0.29107 0.52591,-0.16979 0.52591,0.43661 0.52592,-0.33958 0.52591,0.12128 0.52592,-0.0728 0.52591,-0.43661 0.52592,-0.0728 0.52591,0.16979 0.52592,-0.0728 0.52591,0.16979 1.05183,-0.58215 0.52591,0.14554 1.05183,0.097 0.52592,-0.41235 0.52591,0.3881 1.05183,-0.46087 0.52591,0.1698 0.52592,-0.12128 0.52591,0.0485 0.52592,0.16979 0.52591,-0.24256 0.52592,0.19405 0.52591,-0.097 0.52592,-0.36384 0.52591,0.19405 0.52591,-0.16979 0.52592,0.19405 0.52591,-0.21831 0.52592,0.14554 0.52591,-0.097 0.52592,0.0728 1.57774,-0.4366 0.52591,0.31532 1.57775,0 0.52591,-0.29107 0.52592,0.48512 0.52591,-0.36384 0.52592,0.19405 0.52591,-0.19405 0.52591,0.14554 1.05183,-0.0485 0.52592,0 1.05183,-0.26682 1.57774,0.0485 0.52591,0.21831 1.05183,-0.33959 1.57775,0.21831 0.52591,-0.14554 1.05183,-0.0243 0.52591,0.19405 0.52592,-0.0728 0.52591,-0.2183 0.52592,0.12128 0.52591,-0.097 1.05183,0.0485 1.05183,0 0.52591,0.097 0.52592,-0.16979 1.57774,0 0.52592,0.12128 1.05182,-0.19405 0.52592,0.12128 3.15549,-0.14553 0.52591,0.16979 0.52591,-0.097 0.52592,0.0728 0.52591,-0.0728 0.52592,0.097 0.52591,-0.12128 1.57775,0.0728 1.57774,-0.097 1.57774,0 0,0"
           style="fill:none;stroke:#000000;stroke-width:1;stroke-linecap:butt;stroke-linejoin:round;stroke-miterlimit:10;stroke-opacity:1;stroke-dasharray:6, 6;stroke-dashoffset:0"
           id="path3401"
           inkscape:connector-curvature="0" /></g></g></g></svg>