<?xml version="1.0" encoding="UTF-8" standalone="no"?>
<!-- Created with Inkscape (http://www.inkscape.org/) -->

<svg
   xmlns:dc="http://purl.org/dc/elements/1.1/"
   xmlns:cc="http://creativecommons.org/ns#"
   xmlns:rdf="http://www.w3.org/1999/02/22-rdf-syntax-ns#"
   xmlns:svg="http://www.w3.org/2000/svg"
   xmlns="http://www.w3.org/2000/svg"
   xmlns:xlink="http://www.w3.org/1999/xlink"
   xmlns:sodipodi="http://sodipodi.sourceforge.net/DTD/sodipodi-0.dtd"
   xmlns:inkscape="http://www.inkscape.org/namespaces/inkscape"
   width="199.99998"
   height="171.04153"
   id="svg3423"
   version="1.1"
   inkscape:version="0.48.4 r9939"
   sodipodi:docname="droplet-microfluidic.svg">
  <defs
     id="defs3425">
    <marker
       inkscape:stockid="Arrow1Send"
       orient="auto"
       refY="0"
       refX="0"
       id="Arrow1Send"
       style="overflow:visible">
      <path
         id="path8010"
         d="M 0,0 5,-5 -12.5,0 5,5 0,0 z"
         style="fill-rule:evenodd;stroke:#000000;stroke-width:1pt"
         transform="matrix(-0.2,0,0,-0.2,-1.2,0)"
         inkscape:connector-curvature="0" />
    </marker>
    <marker
       inkscape:stockid="Arrow1Send"
       orient="auto"
       refY="0"
       refX="0"
       id="marker3288"
       style="overflow:visible">
      <path
         id="path3290"
         d="M 0,0 5,-5 -12.5,0 5,5 0,0 z"
         style="fill-rule:evenodd;stroke:#000000;stroke-width:1pt"
         transform="matrix(-0.2,0,0,-0.2,-1.2,0)"
         inkscape:connector-curvature="0" />
    </marker>
    <marker
       inkscape:stockid="Arrow1Send"
       orient="auto"
       refY="0"
       refX="0"
       id="marker3292"
       style="overflow:visible">
      <path
         id="path3294"
         d="M 0,0 5,-5 -12.5,0 5,5 0,0 z"
         style="fill-rule:evenodd;stroke:#000000;stroke-width:1pt"
         transform="matrix(-0.2,0,0,-0.2,-1.2,0)"
         inkscape:connector-curvature="0" />
    </marker>
  </defs>
  <sodipodi:namedview
     id="base"
     pagecolor="#ffffff"
     bordercolor="#666666"
     borderopacity="1.0"
     inkscape:pageopacity="0.0"
     inkscape:pageshadow="2"
     inkscape:zoom="4"
     inkscape:cx="86.039744"
     inkscape:cy="89.113345"
     inkscape:document-units="px"
     inkscape:current-layer="layer1"
     showgrid="false"
     fit-margin-top="0"
     fit-margin-left="0"
     fit-margin-right="0"
     fit-margin-bottom="0"
     inkscape:window-width="1918"
     inkscape:window-height="1053"
     inkscape:window-x="0"
     inkscape:window-y="25"
     inkscape:window-maximized="0"
     inkscape:object-paths="true"
     inkscape:object-nodes="true" />
  <metadata
     id="metadata3428">
    <rdf:RDF>
      <cc:Work
         rdf:about="">
        <dc:format>image/svg+xml</dc:format>
        <dc:type
           rdf:resource="http://purl.org/dc/dcmitype/StillImage" />
        <dc:title />
      </cc:Work>
    </rdf:RDF>
  </metadata>
  <g
     inkscape:label="Layer 1"
     inkscape:groupmode="layer"
     id="layer1"
     transform="translate(-100.00002,-89.69854)">
    <rect
       style="color:#000000;fill:#dafff5;fill-opacity:1;fill-rule:nonzero;stroke:none;stroke-width:1;marker:none;visibility:visible;display:inline;overflow:visible;enable-background:accumulate"
       id="rect7981"
       width="199.53426"
       height="151.00378"
       x="100.31013"
       y="89.69854" />
    <rect
       style="color:#000000;fill:#4b9c50;fill-opacity:1;fill-rule:nonzero;stroke:none;stroke-width:6.90000009999999975;marker:none;visibility:visible;display:inline;overflow:visible;enable-background:accumulate"
       id="rect8861"
       width="199.43175"
       height="20.297041"
       x="100.39606"
       y="240.44304" />
    <path
       inkscape:connector-curvature="0"
       style="color:#000000;fill:#cae6fa;fill-opacity:1;fill-rule:nonzero;stroke:#28507d;stroke-width:1.63044417000000008;stroke-opacity:1;marker:none;visibility:visible;display:inline;overflow:visible;enable-background:accumulate"
       id="path4450"
       d="m 244.12307,187.72579 c 0,18.41817 -9.82593,35.43735 -25.77639,44.64643 -15.95076,9.20907 -35.60263,9.20907 -51.5531,0 -15.95046,-9.20908 -25.7764,-26.22826 -25.7764,-44.64643 0,-18.41816 9.82594,-35.43705 25.7764,-44.64613 15.95047,-9.20907 35.60234,-9.20907 51.5531,0 15.95046,9.20908 25.77639,26.22797 25.77639,44.64613 0,0 0,0 0,0" />
    <g
       style="display:inline"
       transform="matrix(0.20538585,0,0,0.20538585,197.57611,104.52209)"
       id="g5225">
      <use
         height="1052.3622"
         width="744.09448"
         y="0"
         x="0"
         xlink:href="#g4445"
         transform="matrix(-0.016645,0.999815,-0.999815,-0.016645,341.10009,96.743211)"
         id="use6686" />
      <use
         height="1052.3622"
         width="744.09448"
         y="0"
         x="0"
         xlink:href="#g4445"
         transform="matrix(-0.213269,0.976948,-0.976948,-0.213269,353.51381,172.94451)"
         id="use6230" />
      <use
         height="1052.3622"
         width="744.09448"
         y="0"
         x="0"
         xlink:href="#g4445"
         transform="matrix(-0.428393,0.903544,-0.903544,-0.428393,350.25865,256.99716)"
         id="use9185" />
      <use
         height="1052.3622"
         width="744.09448"
         y="0"
         x="0"
         xlink:href="#g4445"
         transform="matrix(-0.620386,0.784241,-0.784241,-0.620386,328.41308,337.99574)"
         id="use5052" />
      <use
         height="1052.3622"
         width="744.09448"
         y="0"
         x="0"
         xlink:href="#g4445"
         transform="matrix(-0.761123,0.648539,-0.648539,-0.761123,292.14178,405.44235)"
         id="use7605" />
      <use
         height="1052.3622"
         width="744.09448"
         y="0"
         x="0"
         xlink:href="#g4445"
         transform="matrix(-0.889851,0.45615,-0.45615,-0.889851,237.93723,470.99559)"
         id="use1959" />
      <use
         height="1052.3622"
         width="744.09448"
         y="0"
         x="0"
         xlink:href="#g4445"
         transform="matrix(-0.970515,0.240857,-0.240857,-0.970515,170.55731,522.49026)"
         id="use9152" />
      <use
         height="1052.3622"
         width="744.09448"
         y="0"
         x="0"
         xlink:href="#g4445"
         transform="matrix(-0.99878,0.048486,-0.048486,-0.99878,100.83454,553.55724)"
         id="use5829" />
      <use
         height="1052.3622"
         width="744.09448"
         y="0"
         x="0"
         xlink:href="#g4445"
         transform="matrix(-0.984132,-0.177192,0.177192,-0.984132,19.11637,571.99677)"
         id="use7555" />
      <use
         height="1052.3622"
         width="744.09448"
         y="0"
         x="0"
         xlink:href="#g4445"
         transform="matrix(-0.918107,-0.396219,0.396219,-0.918107,-65.357115,571.86785)"
         id="use3739" />
      <use
         height="1052.3622"
         width="744.09448"
         y="0"
         x="0"
         xlink:href="#g4445"
         transform="matrix(-0.821502,-0.570125,0.570125,-0.821502,-140.63422,554.0244)"
         id="use9354" />
      <use
         height="1052.3622"
         width="744.09448"
         y="0"
         x="0"
         xlink:href="#g4445"
         transform="matrix(-0.670013,-0.74229,0.74229,-0.670013,-217.33412,518.51809)"
         id="use3745" />
      <use
         height="1052.3622"
         width="744.09448"
         y="0"
         x="0"
         xlink:href="#g4445"
         transform="matrix(-0.485913,-0.873957,0.873957,-0.485913,-283.61811,467.08723)"
         id="use4606" />
      <use
         height="1052.3622"
         width="744.09448"
         y="0"
         x="0"
         xlink:href="#g4445"
         transform="matrix(-0.276669,-0.960919,0.960919,-0.276669,-336.91737,402.11975)"
         id="use9541" />
      <use
         height="1052.3622"
         width="744.09448"
         y="0"
         x="0"
         xlink:href="#g4445"
         transform="matrix(-0.082992,-0.996504,0.996504,-0.082992,-370.85584,333.08186)"
         id="use0002" />
      <use
         height="1052.3622"
         width="744.09448"
         y="0"
         x="0"
         xlink:href="#g4445"
         transform="matrix(0.148628,-0.988847,0.988847,0.148628,-392.60872,250.75648)"
         id="use6133" />
      <use
         height="1052.3622"
         width="744.09448"
         y="0"
         x="0"
         xlink:href="#g4445"
         transform="matrix(0.36898,-0.92939,0.92939,0.36898,-395.17728,166.3723)"
         id="use9525" />
      <use
         height="1052.3622"
         width="744.09448"
         y="0"
         x="0"
         xlink:href="#g4445"
         transform="matrix(0.54138,-0.840726,0.840726,0.54138,-379.9081,91.715195)"
         id="use3693" />
      <use
         height="1052.3622"
         width="744.09448"
         y="0"
         x="0"
         xlink:href="#g4445"
         transform="matrix(0.716992,-0.697017,0.697017,0.716992,-347.33944,14.326169)"
         id="use7709" />
      <use
         height="1052.3622"
         width="744.09448"
         y="0"
         x="0"
         xlink:href="#g4445"
         transform="matrix(0.857543,-0.514322,0.514322,0.857543,-297.85405,-54.670243)"
         id="use9276" />
      <use
         height="1052.3622"
         width="744.09448"
         y="0"
         x="0"
         xlink:href="#g4445"
         transform="matrix(0.942212,-0.334882,0.334882,0.942212,-239.56272,-105.38039)"
         id="use3773" />
      <use
         height="1052.3622"
         width="744.09448"
         y="0"
         x="0"
         xlink:href="#g4445"
         transform="matrix(0.993551,-0.113001,0.113001,0.993551,-166.33169,-146.85549)"
         id="use2918" />
      <use
         height="1052.3622"
         width="744.09448"
         y="0"
         x="0"
         xlink:href="#g4445"
         transform="matrix(0.993551,0.113001,-0.113001,0.993551,-86.012002,-170.84393)"
         id="use5487" />
      <use
         height="1052.3622"
         width="744.09448"
         y="0"
         x="0"
         xlink:href="#g4445"
         transform="matrix(0.942212,0.334882,-0.334882,0.942212,-1.8826022,-176.4706)"
         id="use1058" />
      <use
         height="1052.3622"
         width="744.09448"
         y="0"
         x="0"
         xlink:href="#g4445"
         transform="matrix(0.857543,0.514322,-0.514322,0.857543,74.382644,-163.85273)"
         id="use2106" />
      <use
         height="1052.3622"
         width="744.09448"
         y="0"
         x="0"
         xlink:href="#g4445"
         transform="matrix(0.716992,0.697017,-0.697017,0.716992,153.70475,-133.63957)"
         id="use5955" />
      <use
         height="1052.3622"
         width="744.09448"
         y="0"
         x="0"
         xlink:href="#g4445"
         transform="matrix(0.54138,0.840726,-0.840726,0.54138,223.55303,-86.757627)"
         id="use5940" />
      <use
         height="1052.3622"
         width="744.09448"
         y="0"
         x="0"
         xlink:href="#g4445"
         transform="matrix(0.36898,0.92939,-0.92939,0.36898,275.42022,-30.922576)"
         id="use2754" />
      <use
         height="1052.3622"
         width="744.09448"
         y="0"
         x="0"
         xlink:href="#g4445"
         transform="matrix(0.148628,0.988847,-0.988847,0.148628,319.62869,40.839811)"
         id="use7497" />
    </g>
    <g
       style="display:inline"
       id="g7714"
       transform="matrix(0.20538585,0,0,0.20538585,120.84981,97.626986)">
      <use
         id="use7647"
         transform="matrix(0.903274,-0.428957,0.428957,0.903274,262.9641,6.572665)"
         xlink:href="#g5880"
         x="0"
         y="0"
         width="744.09448"
         height="1052.3622" />
      <use
         id="use4481"
         transform="matrix(0.929762,-0.368037,0.368037,0.929762,282.29928,-0.18118)"
         xlink:href="#g5880"
         x="0"
         y="0"
         width="744.09448"
         height="1052.3622" />
      <use
         id="use7362"
         transform="matrix(0.961589,-0.274328,0.274328,0.961589,303.68164,-4.947705)"
         xlink:href="#g5880"
         x="0"
         y="0"
         width="744.09448"
         height="1052.3622" />
      <use
         id="use5479"
         transform="matrix(0.98386,-0.178694,0.178694,0.98386,325.34695,-7.797682)"
         xlink:href="#g5880"
         x="0"
         y="0"
         width="744.09448"
         height="1052.3622" />
      <use
         id="use7679"
         transform="matrix(0.993403,-0.114293,0.114293,0.993403,345.71661,-9.298344)"
         xlink:href="#g5880"
         x="0"
         y="0"
         width="744.09448"
         height="1052.3622" />
      <use
         id="use0098"
         transform="matrix(0.999807,-0.01727,0.01727,0.999807,367.53312,-8.358119)"
         xlink:href="#g5880"
         x="0"
         y="0"
         width="744.09448"
         height="1052.3622" />
      <use
         id="use7150"
         transform="matrix(0.996777,0.079672,-0.079672,0.996777,389.15117,-5.492026)"
         xlink:href="#g5880"
         x="0"
         y="0"
         width="744.09448"
         height="1052.3622" />
      <use
         id="use1564"
         transform="matrix(0.989541,0.143948,-0.143948,0.989541,409.2019,-1.673361)"
         xlink:href="#g5880"
         x="0"
         y="0"
         width="744.09448"
         height="1052.3622" />
      <use
         id="use2337"
         transform="matrix(0.970882,0.239375,-0.239375,0.970882,430.03207,4.914393)"
         xlink:href="#g5880"
         x="0"
         y="0"
         width="744.09448"
         height="1052.3622" />
      <use
         id="use4506"
         transform="matrix(0.942873,0.333017,-0.333017,0.942873,450.19173,13.338879)"
         xlink:href="#g5880"
         x="0"
         y="0"
         width="744.09448"
         height="1052.3622" />
      <use
         id="use7717"
         transform="matrix(0.919026,0.394083,-0.394083,0.919026,468.59278,22.267561)"
         xlink:href="#g5880"
         x="0"
         y="0"
         width="744.09448"
         height="1052.3622" />
      <use
         id="use3531"
         transform="matrix(0.87557,0.482997,-0.482997,0.87557,487.03329,34.136541)"
         xlink:href="#g5880"
         x="0"
         y="0"
         width="744.09448"
         height="1052.3622" />
      <use
         id="use9786"
         transform="matrix(0.823125,0.567779,-0.567779,0.823125,504.3415,47.613866)"
         xlink:href="#g5880"
         x="0"
         y="0"
         width="744.09448"
         height="1052.3622" />
      <use
         id="use9730"
         transform="matrix(0.78361,0.621179,-0.621179,0.78361,519.78907,61.074983)"
         xlink:href="#g5880"
         x="0"
         y="0"
         width="744.09448"
         height="1052.3622" />
      <use
         id="use4573"
         transform="matrix(0.71837,0.695597,-0.695597,0.71837,534.49421,77.339374)"
         xlink:href="#g5880"
         x="0"
         y="0"
         width="744.09448"
         height="1052.3622" />
      <use
         id="use2647"
         transform="matrix(0.646684,0.7627,-0.7627,0.646684,547.6698,94.794315)"
         xlink:href="#g5880"
         x="0"
         y="0"
         width="744.09448"
         height="1052.3622" />
      <use
         id="use0020"
         transform="matrix(0.595682,0.803166,-0.803166,0.595682,559.06515,111.75531)"
         xlink:href="#g5880"
         x="0"
         y="0"
         width="744.09448"
         height="1052.3622" />
      <use
         id="use6787"
         transform="matrix(0.51486,0.857223,-0.857223,0.51486,569.01797,131.21351)"
         xlink:href="#g5880"
         x="0"
         y="0"
         width="744.09448"
         height="1052.3622" />
      <use
         id="use2268"
         transform="matrix(0.429391,0.90307,-0.90307,0.429391,577.19559,151.44842)"
         xlink:href="#g5880"
         x="0"
         y="0"
         width="744.09448"
         height="1052.3622" />
      <use
         id="use9406"
         transform="matrix(0.339836,0.940438,-0.940438,0.339836,583.53828,172.31418)"
         xlink:href="#g5880"
         x="0"
         y="0"
         width="744.09448"
         height="1052.3622" />
      <use
         id="use6692"
         transform="matrix(0.278136,0.960496,-0.960496,0.278136,588.3596,192.15583)"
         xlink:href="#g5880"
         x="0"
         y="0"
         width="744.09448"
         height="1052.3622" />
      <use
         id="use8157"
         transform="matrix(0.183035,0.983061,-0.983061,0.183035,590.97749,213.86627)"
         xlink:href="#g5880"
         x="0"
         y="0"
         width="744.09448"
         height="1052.3622" />
      <use
         id="use1703"
         transform="matrix(0.085487,0.996294,-0.996294,0.085487,591.63807,235.73344)"
         xlink:href="#g5880"
         x="0"
         y="0"
         width="744.09448"
         height="1052.3622" />
      <use
         id="use3897"
         transform="matrix(0.019497,0.999764,-0.999764,0.019497,591.1013,256.20001)"
         xlink:href="#g5880"
         x="0"
         y="0"
         width="744.09448"
         height="1052.3622" />
      <use
         id="use3793"
         transform="matrix(-0.080149,0.996737,-0.996737,-0.080149,587.90964,277.92273)"
         xlink:href="#g5880"
         x="0"
         y="0"
         width="744.09448"
         height="1052.3622" />
      <use
         id="use7854"
         transform="matrix(-0.178802,0.983839,-0.983839,-0.178802,582.81526,299.24353)"
         xlink:href="#g5880"
         x="0"
         y="0"
         width="744.09448"
         height="1052.3622" />
      <use
         id="use6017"
         transform="matrix(-0.24322,0.969925,-0.969925,-0.24322,576.9581,318.85166)"
         xlink:href="#g5880"
         x="0"
         y="0"
         width="744.09448"
         height="1052.3622" />
      <use
         id="use5422"
         transform="matrix(-0.337176,0.941395,-0.941395,-0.337176,568.26535,338.93969)"
         xlink:href="#g5880"
         x="0"
         y="0"
         width="744.09448"
         height="1052.3622" />
      <use
         id="use2439"
         transform="matrix(-0.427296,0.904063,-0.904063,-0.427296,557.85343,358.13668)"
         xlink:href="#g5880"
         x="0"
         y="0"
         width="744.09448"
         height="1052.3622" />
      <use
         id="use9669"
         transform="matrix(-0.484947,0.874493,-0.874493,-0.484947,547.14135,375.52048)"
         xlink:href="#g5880"
         x="0"
         y="0"
         width="744.09448"
         height="1052.3622" />
      <use
         id="use0280"
         transform="matrix(-0.567387,0.823399,-0.823399,-0.567387,533.56221,392.63071)"
         xlink:href="#g5880"
         x="0"
         y="0"
         width="744.09448"
         height="1052.3622" />
      <use
         id="use8406"
         transform="matrix(-0.644526,0.764525,-0.764525,-0.644526,518.52853,408.45368)"
         xlink:href="#g5880"
         x="0"
         y="0"
         width="744.09448"
         height="1052.3622" />
      <use
         id="use7871"
         transform="matrix(-0.715831,0.69821,-0.69821,-0.715831,502.14707,422.87067)"
         xlink:href="#g5880"
         x="0"
         y="0"
         width="744.09448"
         height="1052.3622" />
      <use
         id="use4303"
         transform="matrix(-0.759838,0.650044,-0.650044,-0.759838,486.06153,435.4723)"
         xlink:href="#g5880"
         x="0"
         y="0"
         width="744.09448"
         height="1052.3622" />
      <use
         id="use2126"
         transform="matrix(-0.820072,0.572181,-0.572181,-0.820072,467.34908,446.84194)"
         xlink:href="#g5880"
         x="0"
         y="0"
         width="744.09448"
         height="1052.3622" />
      <use
         id="use1051"
         transform="matrix(-0.872745,0.488082,-0.488082,-0.872745,447.68116,456.49138)"
         xlink:href="#g5880"
         x="0"
         y="0"
         width="744.09448"
         height="1052.3622" />
      <use
         id="use8542"
         transform="matrix(-0.903274,0.428957,-0.428957,-0.903274,428.80254,464.45748)"
         xlink:href="#g5880"
         x="0"
         y="0"
         width="744.09448"
         height="1052.3622" />
      <use
         id="use3261"
         transform="matrix(-0.94143,0.337073,-0.337073,-0.94143,407.72434,470.54553)"
         xlink:href="#g5880"
         x="0"
         y="0"
         width="744.09448"
         height="1052.3622" />
      <use
         id="use8146"
         transform="matrix(-0.970075,0.24262,-0.24262,-0.970075,386.2481,474.73683)"
         xlink:href="#g5880"
         x="0"
         y="0"
         width="744.09448"
         height="1052.3622" />
      <use
         id="use0543"
         transform="matrix(-0.98386,0.178694,-0.178694,-0.98386,365.99738,477.51636)"
         xlink:href="#g5880"
         x="0"
         y="0"
         width="744.09448"
         height="1052.3622" />
      <use
         id="use3786"
         transform="matrix(-0.99659,0.081982,-0.081982,-0.99659,344.14411,477.92893)"
         xlink:href="#g5880"
         x="0"
         y="0"
         width="744.09448"
         height="1052.3622" />
      <use
         id="use3096"
         transform="matrix(-0.999843,-0.015084,0.015084,-0.999843,322.37845,476.40796)"
         xlink:href="#g5880"
         x="0"
         y="0"
         width="744.09448"
         height="1052.3622" />
      <use
         id="use4577"
         transform="matrix(-0.996777,-0.079672,0.079672,-0.996777,302.12547,473.85676)"
         xlink:href="#g5880"
         x="0"
         y="0"
         width="744.09448"
         height="1052.3622" />
      <use
         id="use0260"
         transform="matrix(-0.984361,-0.175913,0.175913,-0.984361,280.92722,468.58058)"
         xlink:href="#g5880"
         x="0"
         y="0"
         width="744.09448"
         height="1052.3622" />
      <use
         id="use4953"
         transform="matrix(-0.962583,-0.270823,0.270823,-0.962583,260.28906,461.43653)"
         xlink:href="#g5880"
         x="0"
         y="0"
         width="744.09448"
         height="1052.3622" />
      <use
         id="use7581"
         transform="matrix(-0.931466,-0.363707,0.363707,-0.931466,240.36753,452.47212)"
         xlink:href="#g5880"
         x="0"
         y="0"
         width="744.09448"
         height="1052.3622" />
      <use
         id="use6468"
         transform="matrix(-0.905559,-0.424113,0.424113,-0.905559,222.22994,443.01846)"
         xlink:href="#g5880"
         x="0"
         y="0"
         width="744.09448"
         height="1052.3622" />
      <use
         id="use3406"
         transform="matrix(-0.859064,-0.511778,0.511778,-0.859064,204.12053,430.65713)"
         xlink:href="#g5880"
         x="0"
         y="0"
         width="744.09448"
         height="1052.3622" />
      <use
         id="use8387"
         transform="matrix(-0.803786,-0.594841,0.594841,-0.803786,187.18752,416.72918)"
         xlink:href="#g5880"
         x="0"
         y="0"
         width="744.09448"
         height="1052.3622" />
      <use
         id="use7756"
         transform="matrix(-0.762628,-0.646766,0.646766,-0.762628,172.13933,402.84477)"
         xlink:href="#g5880"
         x="0"
         y="0"
         width="744.09448"
         height="1052.3622" />
      <use
         id="use7536"
         transform="matrix(-0.695152,-0.7188,0.7188,-0.695152,157.8893,386.21562)"
         xlink:href="#g5880"
         x="0"
         y="0"
         width="744.09448"
         height="1052.3622" />
      <use
         id="use0928"
         transform="matrix(-0.621487,-0.783368,0.783368,-0.621487,145.19692,368.43511)"
         xlink:href="#g5880"
         x="0"
         y="0"
         width="744.09448"
         height="1052.3622" />
      <use
         id="use5241"
         transform="matrix(-0.569294,-0.822081,0.822081,-0.569294,134.29272,351.16813)"
         xlink:href="#g5880"
         x="0"
         y="0"
         width="744.09448"
         height="1052.3622" />
      <use
         id="use5329"
         transform="matrix(-0.486858,-0.873431,0.873431,-0.486858,124.87109,331.46834)"
         xlink:href="#g5880"
         x="0"
         y="0"
         width="744.09448"
         height="1052.3622" />
      <use
         id="use0061"
         transform="matrix(-0.399966,-0.916482,0.916482,-0.399966,117.24267,311.03457)"
         xlink:href="#g5880"
         x="0"
         y="0"
         width="744.09448"
         height="1052.3622" />
      <use
         id="use7458"
         transform="matrix(-0.339836,-0.940438,0.940438,-0.339836,111.181,291.53979)"
         xlink:href="#g5880"
         x="0"
         y="0"
         width="744.09448"
         height="1052.3622" />
      <use
         id="use2469"
         transform="matrix(-0.246752,-0.969033,0.969033,-0.246752,107.21145,270.04464)"
         xlink:href="#g5880"
         x="0"
         y="0"
         width="744.09448"
         height="1052.3622" />
      <use
         id="use3018"
         transform="matrix(-0.150754,-0.988526,0.988526,-0.150754,105.18178,248.27582)"
         xlink:href="#g5880"
         x="0"
         y="0"
         width="744.09448"
         height="1052.3622" />
      <use
         id="use0346"
         transform="matrix(-0.052565,-0.998572,0.998572,-0.052565,105.11279,226.40094)"
         xlink:href="#g5880"
         x="0"
         y="0"
         width="744.09448"
         height="1052.3622" />
      <use
         id="use6772"
         transform="matrix(0.013681,-0.99986,0.99986,0.013681,106.23785,205.95771)"
         xlink:href="#g5880"
         x="0"
         y="0"
         width="744.09448"
         height="1052.3622" />
      <use
         id="use7374"
         transform="matrix(0.113255,-0.99352,0.99352,0.113255,110.00724,184.3404)"
         xlink:href="#g5880"
         x="0"
         y="0"
         width="744.09448"
         height="1052.3622" />
      <use
         id="use2907"
         transform="matrix(0.178802,-0.983839,0.983839,0.178802,114.62189,164.38299)"
         xlink:href="#g5880"
         x="0"
         y="0"
         width="744.09448"
         height="1052.3622" />
      <use
         id="use3900"
         transform="matrix(0.274923,-0.96142,0.96142,0.274923,122.06605,143.76669)"
         xlink:href="#g5880"
         x="0"
         y="0"
         width="744.09448"
         height="1052.3622" />
      <use
         id="use8048"
         transform="matrix(0.367674,-0.929907,0.929907,0.367674,131.28024,123.93956)"
         xlink:href="#g5880"
         x="0"
         y="0"
         width="744.09448"
         height="1052.3622" />
      <use
         id="use6985"
         transform="matrix(0.456378,-0.889737,0.889737,0.456378,142.19027,105.04439)"
         xlink:href="#g5880"
         x="0"
         y="0"
         width="744.09448"
         height="1052.3622" />
      <use
         id="use3128"
         transform="matrix(0.512984,-0.858347,0.858347,0.512984,153.38533,87.978484)"
         xlink:href="#g5880"
         x="0"
         y="0"
         width="744.09448"
         height="1052.3622" />
      <use
         id="use4451"
         transform="matrix(0.593714,-0.804622,0.804622,0.593714,167.4083,71.249043)"
         xlink:href="#g5880"
         x="0"
         y="0"
         width="744.09448"
         height="1052.3622" />
      <use
         id="use0993"
         transform="matrix(0.66897,-0.74323,0.74323,0.66897,182.8549,55.842074)"
         xlink:href="#g5880"
         x="0"
         y="0"
         width="744.09448"
         height="1052.3622" />
      <use
         id="use4935"
         transform="matrix(0.715831,-0.69821,0.69821,0.715831,198.10432,42.252667)"
         xlink:href="#g5880"
         x="0"
         y="0"
         width="744.09448"
         height="1052.3622" />
      <use
         id="use1229"
         transform="matrix(0.780712,-0.624819,0.624819,0.780712,216.05517,29.738718)"
         xlink:href="#g5880"
         x="0"
         y="0"
         width="744.09448"
         height="1052.3622" />
      <use
         id="use8081"
         transform="matrix(0.838506,-0.544809,0.544809,0.838506,235.06583,18.881289)"
         xlink:href="#g5880"
         x="0"
         y="0"
         width="744.09448"
         height="1052.3622" />
      <use
         id="use0533"
         transform="matrix(0.872745,-0.488083,0.488083,0.872745,253.39252,9.7331)"
         xlink:href="#g5880"
         x="0"
         y="0"
         width="744.09448"
         height="1052.3622" />
    </g>
    <path
       style="fill:none;stroke:#9d4b4b;stroke-width:1.64308679;stroke-linecap:round;stroke-linejoin:miter;stroke-miterlimit:4;stroke-opacity:1;stroke-dasharray:none;display:inline"
       d="m 192.83971,174.56869 c 2.1785,1.1411 -1.1539,7.4453 0.7047,7.9262 2.1748,0.5627 0.3385,6.7367 3.2099,6.5518 4.4833,-0.2885 0.079,7.9861 0.079,7.9861"
       id="path7987"
       inkscape:connector-curvature="0"
       sodipodi:nodetypes="cssc" />
    <path
       style="fill:none;stroke:#000000;stroke-width:0.20538585px;stroke-linecap:butt;stroke-linejoin:miter;stroke-opacity:1;display:inline"
       d="m 100.10271,240.31839 199.7946,0"
       id="path8888"
       inkscape:connector-curvature="0" />
    <text
       xml:space="preserve"
       style="font-size:2.46463037px;font-style:normal;font-variant:normal;font-weight:normal;font-stretch:normal;text-align:start;line-height:125%;letter-spacing:0px;word-spacing:0px;writing-mode:lr-tb;text-anchor:start;fill:#000000;fill-opacity:1;stroke:none;font-family:Sans;-inkscape-font-specification:Sans"
       x="256.40436"
       y="168.30913"
       id="text8811"
       sodipodi:linespacing="125%"><tspan
         sodipodi:role="line"
         id="tspan8813"
         x="256.40436"
         y="168.30913"
         style="font-size:8.21543407px">molecule</tspan><tspan
         sodipodi:role="line"
         x="256.40436"
         y="178.57841"
         id="tspan8815"
         style="font-size:8.21543407px">under</tspan><tspan
         sodipodi:role="line"
         x="256.40436"
         y="188.84772"
         id="tspan8817"
         style="font-size:8.21543407px">study</tspan></text>
    <text
       sodipodi:linespacing="125%"
       id="text8871"
       y="255.2542"
       x="238.87141"
       style="font-size:2.46463037px;font-style:normal;font-variant:normal;font-weight:normal;font-stretch:normal;text-align:start;line-height:125%;letter-spacing:0px;word-spacing:0px;writing-mode:lr-tb;text-anchor:start;fill:#000000;fill-opacity:1;stroke:none;font-family:Sans;-inkscape-font-specification:Sans"
       xml:space="preserve"><tspan
         style="font-size:8.21543407px"
         id="tspan8877"
         y="255.2542"
         x="238.87141"
         sodipodi:role="line">glass surface</tspan></text>
    <rect
       style="color:#000000;fill:#000000;fill-opacity:1;stroke:none;stroke-width:8;marker:none;visibility:visible;display:inline;overflow:visible;enable-background:accumulate"
       id="rect8890"
       width="12.690589"
       height="1.6259648"
       x="111.69392"
       y="234.46819" />
    <text
       sodipodi:linespacing="125%"
       id="text8892"
       y="233.29399"
       x="104.3216"
       style="font-size:2.46463037px;font-style:normal;font-variant:normal;font-weight:normal;font-stretch:normal;text-align:start;line-height:125%;letter-spacing:0px;word-spacing:0px;writing-mode:lr-tb;text-anchor:start;fill:#000000;fill-opacity:1;stroke:none;font-family:Sans;-inkscape-font-specification:Sans"
       xml:space="preserve"><tspan
         style="font-size:8.21543407px"
         id="tspan8894"
         y="233.29399"
         x="104.3216"
         sodipodi:role="line">~10nm</tspan></text>
    <path
       style="fill:none;stroke:#000000;stroke-width:1.41716242;stroke-linecap:butt;stroke-linejoin:miter;stroke-miterlimit:4;stroke-opacity:1;stroke-dasharray:none;marker-end:url(#Arrow1Send);display:inline"
       d="m 255.50651,176.21029 c -37.56776,1.36994 -38.82321,-17.83422 -58.8102,-2.1303"
       id="path7989"
       inkscape:connector-curvature="0"
       sodipodi:nodetypes="cc" />
    <rect
       style="color:#000000;fill:#4b9c50;fill-opacity:1;fill-rule:nonzero;stroke:none;stroke-width:5;marker:none;visibility:visible;display:inline;overflow:visible;enable-background:accumulate"
       id="rect4510"
       width="199.53426"
       height="43.041542"
       x="100.31013"
       y="89.69854"
       ry="0" />
    <text
       xml:space="preserve"
       style="font-size:2.46463037px;font-style:normal;font-variant:normal;font-weight:normal;font-stretch:normal;text-align:start;line-height:125%;letter-spacing:0px;word-spacing:0px;writing-mode:lr-tb;text-anchor:start;fill:#000000;fill-opacity:1;stroke:none;font-family:Sans;-inkscape-font-specification:Sans"
       x="192.62141"
       y="127.50421"
       id="text4512"
       sodipodi:linespacing="125%"><tspan
         sodipodi:role="line"
         x="192.62141"
         y="127.50421"
         id="tspan4514"
         style="font-size:8.21543407px">PDMS microfluidic device</tspan></text>
    <text
       sodipodi:linespacing="125%"
       id="text4535"
       y="143.80913"
       x="256.40436"
       style="font-size:2.46463037px;font-style:normal;font-variant:normal;font-weight:normal;font-stretch:normal;text-align:start;line-height:125%;letter-spacing:0px;word-spacing:0px;writing-mode:lr-tb;text-anchor:start;fill:#000000;fill-opacity:1;stroke:none;font-family:Sans;-inkscape-font-specification:Sans"
       xml:space="preserve"><tspan
         style="font-size:8.21543407px"
         id="tspan4541"
         y="143.80913"
         x="256.40436"
         sodipodi:role="line">surfactant</tspan></text>
    <path
       sodipodi:nodetypes="cc"
       inkscape:connector-curvature="0"
       id="path4548"
       d="m 254.00651,140.96029 c -9.75896,-0.23777 -22.48464,-5.15332 -31.5602,1.3697"
       style="fill:none;stroke:#000000;stroke-width:1.41716242;stroke-linecap:butt;stroke-linejoin:miter;stroke-miterlimit:4;stroke-opacity:1;stroke-dasharray:none;marker-end:url(#Arrow1Send);display:inline" />
    <text
       xml:space="preserve"
       style="font-size:12px;font-style:normal;font-variant:normal;font-weight:normal;font-stretch:normal;text-align:start;line-height:125%;letter-spacing:0px;word-spacing:0px;writing-mode:lr-tb;text-anchor:start;fill:#000000;fill-opacity:1;stroke:none;font-family:Sans;-inkscape-font-specification:Sans"
       x="100.31013"
       y="139.24008"
       id="text5069"
       sodipodi:linespacing="125%"><tspan
         sodipodi:role="line"
         id="tspan5071"
         x="100.31013"
         y="139.24008"
         style="font-size:8px;font-style:normal;font-variant:normal;font-weight:normal;font-stretch:normal;text-align:start;line-height:125%;writing-mode:lr-tb;text-anchor:start;font-family:Sans;-inkscape-font-specification:Sans">Perfluorinated oil</tspan></text>
  </g>
</svg>
